####
#
# OBJ File Generated by Meshlab
#
####
# Object processed_empty_floor.obj
#
# Vertices: 8
# Faces: 12
#
####
vn 1.570796 1.570833 1.570796
v 7000.035156 0.000000 10.061266
vn -1.570833 1.570796 1.570796
v 0.035283 0.000000 10.061266
vn -1.570796 -1.570796 1.570796
v 0.035283 -7000.000000 10.061266
vn 1.570833 -1.570833 1.570796
v 7000.035156 -7000.000000 10.061266
vn 1.570833 1.570796 -1.570796
v 7000.035156 0.000000 0.061266
vn 1.570796 -1.570796 -1.570796
v 7000.035156 -7000.000000 0.061266
vn -1.570796 1.570833 -1.570796
v 0.035283 0.000000 0.061266
vn -1.570833 -1.570833 -1.570796
v 0.035283 -7000.000000 0.061266
# 8 vertices, 0 vertices normals

f 1//1 2//2 3//3
f 1//1 3//3 4//4
f 5//5 1//1 4//4
f 5//5 4//4 6//6
f 7//7 5//5 6//6
f 7//7 6//6 8//8
f 2//2 7//7 8//8
f 2//2 8//8 3//3
f 1//1 5//5 7//7
f 1//1 7//7 2//2
f 6//6 4//4 8//8
f 8//8 4//4 3//3
# 12 faces, 0 coords texture

# End of File
